<svg width="32" height="26" viewBox="0 0 32 26" fill="none" xmlns="http://www.w3.org/2000/svg">
<path id="Vector" d="M31.5134 8.23345L17.6467 25.2186C17.4462 25.4645 17.1945 25.6621 16.9098 25.7972C16.625 25.9323 16.3143 26.0016 16 26C15.6866 26.0008 15.3769 25.9311 15.0931 25.7961C14.8094 25.661 14.5585 25.4638 14.3587 25.2186L0.486555 8.23345C0.303978 8.01192 0.167927 7.75481 0.0867577 7.47793C0.00558883 7.20105 -0.018983 6.91023 0.0145518 6.62336C0.0479158 6.33577 0.13795 6.05795 0.279289 5.80645C0.420627 5.55496 0.610376 5.33494 0.837224 5.15951C5.19511 1.79267 10.5246 -0.0207381 16 0.000178941C21.4755 -0.0207381 26.8049 1.79267 31.1628 5.15951C31.3896 5.33494 31.5794 5.55496 31.7207 5.80645C31.8621 6.05795 31.9521 6.33577 31.9854 6.62336C32.019 6.91023 31.9944 7.20105 31.9132 7.47793C31.8321 7.75481 31.696 8.01192 31.5134 8.23345Z" fill="#555555"/>
</svg>
