<svg width="40" height="40" viewBox="0 0 40 40" fill="none" xmlns="http://www.w3.org/2000/svg">
<path id="Vector" d="M39.7948 39.2001C39.6598 39.4434 39.4655 39.6453 39.2315 39.7858C38.9976 39.9262 38.7322 40.0001 38.4621 40H1.53697C1.26703 39.9997 1.00192 39.9256 0.768248 39.7851C0.53458 39.6445 0.340581 39.4425 0.205732 39.1994C0.0708828 38.9562 -6.92504e-05 38.6805 5.07177e-08 38.3998C6.93518e-05 38.1191 0.0711575 37.8434 0.206126 37.6003C3.13513 32.335 7.64884 28.5596 12.9164 26.7698C10.3108 25.1569 8.28647 22.6993 7.15417 19.7743C6.02188 16.8494 5.84429 13.6188 6.64867 10.5787C7.45305 7.53864 9.19493 4.85717 11.6068 2.94609C14.0187 1.03501 16.9672 0 19.9995 0C23.0319 0 25.9804 1.03501 28.3922 2.94609C30.8041 4.85717 32.546 7.53864 33.3504 10.5787C34.1547 13.6188 33.9772 16.8494 32.8449 19.7743C31.7126 22.6993 29.6882 25.1569 27.0826 26.7698C32.3502 28.5596 36.8639 32.335 39.7929 37.6003C39.9282 37.8433 39.9997 38.1191 40 38.3999C40.0003 38.6808 39.9296 38.9567 39.7948 39.2001Z" fill="#555555"/>
</svg>
