<svg width="39" height="40" viewBox="0 0 39 40" fill="none" xmlns="http://www.w3.org/2000/svg">
<path id="Vector" d="M38.4033 18.3082V36.7997C38.4033 37.6485 38.0661 38.4625 37.4659 39.0627C36.8658 39.6628 36.0518 40 35.203 40H27.2023C26.3535 40 25.5395 39.6628 24.9394 39.0627C24.3392 38.4625 24.002 37.6485 24.002 36.7997V28.799C24.002 28.3747 23.8335 27.9677 23.5334 27.6676C23.2333 27.3675 22.8263 27.1989 22.4019 27.1989H16.0014C15.577 27.1989 15.17 27.3675 14.8699 27.6676C14.5698 27.9677 14.4012 28.3747 14.4012 28.799V36.7997C14.4012 37.6485 14.0641 38.4625 13.4639 39.0627C12.8637 39.6628 12.0497 40 11.201 40H3.20027C2.35151 40 1.53751 39.6628 0.937338 39.0627C0.33717 38.4625 3.69788e-08 37.6485 3.69788e-08 36.7997V18.3082C-6.72914e-05 17.8652 0.0918062 17.4271 0.269806 17.0215C0.447806 16.616 0.708056 16.2518 1.03409 15.952L17.0354 0.854671L17.0575 0.832669C17.6466 0.29689 18.4143 0 19.2106 0C20.007 0 20.7747 0.29689 21.3638 0.832669C21.3706 0.840496 21.378 0.847847 21.3858 0.854671L37.3872 15.952C37.7099 16.2533 37.9668 16.6183 38.1417 17.0238C38.3166 17.4293 38.4056 17.8666 38.4033 18.3082Z" fill="#555555"/>
</svg>
