<svg width="41" height="40" viewBox="0 0 41 40" fill="none" xmlns="http://www.w3.org/2000/svg">
<path id="Vector" d="M16.6667 38.3333C16.6667 38.7754 16.4911 39.1993 16.1785 39.5118C15.8659 39.8244 15.442 40 15 40H3.33333C2.44928 40 1.60143 39.6488 0.976311 39.0237C0.351189 38.3986 0 37.5507 0 36.6667V3.33333C0 2.44928 0.351189 1.60143 0.976311 0.976311C1.60143 0.351189 2.44928 0 3.33333 0H15C15.442 0 15.8659 0.175595 16.1785 0.488156C16.4911 0.800716 16.6667 1.22464 16.6667 1.66667C16.6667 2.10869 16.4911 2.53262 16.1785 2.84518C15.8659 3.15774 15.442 3.33333 15 3.33333H3.33333V36.6667H15C15.442 36.6667 15.8659 36.8423 16.1785 37.1548C16.4911 37.4674 16.6667 37.8913 16.6667 38.3333ZM39.5125 18.8208L31.1792 10.4875C30.9461 10.2541 30.649 10.0952 30.3255 10.0308C30.002 9.96637 29.6667 9.99937 29.362 10.1256C29.0573 10.2519 28.7969 10.4657 28.6138 10.74C28.4307 11.0144 28.3331 11.3368 28.3333 11.6667V18.3333H15C14.558 18.3333 14.134 18.5089 13.8215 18.8215C13.5089 19.134 13.3333 19.558 13.3333 20C13.3333 20.442 13.5089 20.866 13.8215 21.1785C14.134 21.4911 14.558 21.6667 15 21.6667H28.3333V28.3333C28.3331 28.6632 28.4307 28.9856 28.6138 29.26C28.7969 29.5343 29.0573 29.7481 29.362 29.8744C29.6667 30.0006 30.002 30.0336 30.3255 29.9692C30.649 29.9048 30.9461 29.7459 31.1792 29.5125L39.5125 21.1792C39.6675 21.0244 39.7904 20.8406 39.8743 20.6382C39.9581 20.4359 40.0013 20.219 40.0013 20C40.0013 19.781 39.9581 19.5641 39.8743 19.3618C39.7904 19.1594 39.6675 18.9756 39.5125 18.8208Z" fill="#555555"/>
</svg>
