<svg width="31" height="26" viewBox="0 0 31 26" fill="none" xmlns="http://www.w3.org/2000/svg">
<path id="Vector" d="M29.9958 8.95521C30.1956 9.14975 30.315 9.41225 30.3303 9.69066C30.3456 9.96907 30.2557 10.2431 30.0784 10.4583C29.9811 10.5712 29.8615 10.6628 29.7272 10.7274C29.5928 10.792 29.4466 10.8282 29.2976 10.8336C29.1486 10.8391 29.0001 10.8137 28.8614 10.7592C28.7227 10.7046 28.5967 10.622 28.4914 10.5166L26.0065 8.03167L23.523 10.5166C23.4176 10.622 23.2916 10.7046 23.1529 10.7592C23.0142 10.8137 22.8657 10.8391 22.7167 10.8336C22.5678 10.8282 22.4215 10.792 22.2872 10.7274C22.1528 10.6628 22.0332 10.5712 21.9359 10.4583C21.7587 10.2431 21.6688 9.96907 21.6841 9.69066C21.6994 9.41225 21.8187 9.14975 22.0185 8.95521L24.4749 6.50012L22.0226 4.04774C21.8162 3.84797 21.6952 3.57609 21.6849 3.28908C21.6745 3.00206 21.7756 2.72218 21.967 2.50806C22.0664 2.40224 22.186 2.31747 22.3188 2.25878C22.4515 2.20008 22.5947 2.16867 22.7398 2.16639C22.885 2.16412 23.0291 2.19104 23.1636 2.24554C23.2981 2.30005 23.4203 2.38103 23.523 2.48369L26.0065 4.96857L28.4914 2.48369C28.594 2.38103 28.7162 2.30005 28.8507 2.24554C28.9853 2.19104 29.1294 2.16412 29.2745 2.16639C29.4196 2.16867 29.5628 2.20008 29.6956 2.25878C29.8283 2.31747 29.9479 2.40224 30.0473 2.50806C30.2387 2.72218 30.3398 3.00206 30.3295 3.28908C30.3191 3.57609 30.1981 3.84797 29.9918 4.04774L27.5394 6.50012L29.9958 8.95521ZM27.6247 12.5546C27.3845 12.4147 27.1633 12.2445 26.9666 12.0481L26.3965 11.4794C26.2949 11.3781 26.1574 11.3212 26.0139 11.3212C25.8705 11.3212 25.7329 11.3781 25.6314 11.4794L25.0518 12.0522C24.7471 12.3572 24.3847 12.5985 23.9857 12.762C23.5868 12.9256 23.1593 13.0081 22.7281 13.0049C22.297 13.0016 21.8708 12.9125 21.4744 12.7429C21.078 12.5733 20.7193 12.3266 20.4192 12.017C19.1748 10.7332 19.2425 8.66813 20.5073 7.4047L21.0232 6.88741C21.0736 6.83711 21.1135 6.77737 21.1408 6.71161C21.168 6.64585 21.1821 6.57537 21.1821 6.50418C21.1821 6.433 21.168 6.36252 21.1408 6.29676C21.1135 6.231 21.0736 6.17126 21.0232 6.12096L20.4558 5.55221C20.1533 5.24974 19.9136 4.89054 19.7502 4.49521C19.5869 4.09988 19.5032 3.6762 19.504 3.24845C19.5047 2.82071 19.5899 2.39733 19.7546 2.00257C19.9194 1.60782 20.1604 1.24947 20.4639 0.948073C20.5129 0.899071 20.5475 0.837491 20.5637 0.770117C20.58 0.702743 20.5773 0.632192 20.556 0.566236C20.5347 0.50028 20.4957 0.44148 20.4431 0.396315C20.3905 0.35115 20.3265 0.321373 20.2581 0.310265C18.932 0.103523 17.5919 -0.000155141 16.2498 0.000162165C10.689 -0.0197443 5.27669 1.79357 0.850295 5.1595C0.619905 5.33493 0.427194 5.55495 0.283649 5.80645C0.140104 6.05794 0.0486638 6.33576 0.014779 6.62335C-0.0192793 6.91023 0.00567608 7.20104 0.0881121 7.47793C0.170548 7.75481 0.308724 8.01191 0.494151 8.23344L14.5869 25.2186C14.7894 25.4633 15.0435 25.6601 15.331 25.7952C15.6184 25.9303 15.9322 26.0002 16.2498 26C16.568 26.0002 16.8823 25.9302 17.1704 25.7952C17.4585 25.6601 17.7133 25.4633 17.9168 25.2186L27.7479 13.3698C27.7993 13.3106 27.8373 13.2409 27.8591 13.1656C27.8809 13.0904 27.8862 13.0112 27.8745 12.9337C27.8628 12.8562 27.8344 12.7822 27.7912 12.7167C27.7481 12.6512 27.6913 12.5959 27.6247 12.5546Z" fill="#555555"/>
</svg>
