<svg width="40" height="51" viewBox="0 0 40 51" fill="none" xmlns="http://www.w3.org/2000/svg">
<g id="Group 3">
<g id="Group">
<g id="Group_2">
<path id="Vector" d="M39.9759 41.6021L37.7232 13.2137C37.5834 11.3846 36.036 9.95239 34.202 9.95239H29.7518V16.546C29.7518 17.3625 29.0908 18.0235 28.2743 18.0235C27.4587 18.0235 26.7968 17.3625 26.7968 16.546V9.95239H13.204V16.546C13.204 17.3625 12.542 18.0235 11.7264 18.0235C10.9099 18.0235 10.2489 17.3625 10.2489 16.546V9.95239H5.79876C3.96476 9.95239 2.41729 11.3846 2.27747 13.2097L0.0238084 41.606C-0.150498 43.8804 0.638461 46.1439 2.1878 47.8164C3.73724 49.4888 5.93375 50.4492 8.21402 50.4492H31.7868C34.0671 50.4492 36.2636 49.4888 37.813 47.8163C39.3624 46.1438 40.1513 43.8803 39.9759 41.6021ZM26.6569 27.1453L19.0154 34.7869C18.7268 35.0755 18.3485 35.2202 17.9703 35.2202C17.5921 35.2202 17.2139 35.0755 16.9253 34.7869L13.3439 31.2055C12.7667 30.6283 12.7667 29.6935 13.3439 29.1163C13.9211 28.5391 14.8569 28.5391 15.4331 29.1163L17.9704 31.6526L24.5678 25.0552C25.1441 24.479 26.0798 24.479 26.657 25.0552C27.2342 25.6324 27.2341 26.5681 26.6569 27.1453Z" fill="#555555"/>
</g>
</g>
<g id="Group_3">
<g id="Group_4">
<path id="Vector_2" d="M19.9965 0C14.6194 0 10.2451 4.37528 10.2451 9.75236V9.95228H13.2001V9.75236C13.2001 6.00444 16.2487 2.95492 19.9966 2.95492C23.7445 2.95492 26.793 6.00444 26.793 9.75236V9.95228H29.748V9.75236C29.7479 4.37528 25.3736 0 19.9965 0Z" fill="#555555"/>
</g>
</g>
</g>
</svg>
