<svg width="28" height="24" viewBox="0 0 28 24" fill="none" xmlns="http://www.w3.org/2000/svg">
<path id="Vector" d="M28 8V18C28 18.2652 27.8946 18.5196 27.7071 18.7071C27.5196 18.8946 27.2652 19 27 19H23V23C23 23.2652 22.8946 23.5196 22.7071 23.7071C22.5196 23.8946 22.2652 24 22 24H6C5.73478 24 5.48043 23.8946 5.29289 23.7071C5.10536 23.5196 5 23.2652 5 23V19H1C0.734784 19 0.48043 18.8946 0.292893 18.7071C0.105357 18.5196 0 18.2652 0 18V8C0 6.34625 1.42 5 3.16625 5H5V1C5 0.734784 5.10536 0.48043 5.29289 0.292893C5.48043 0.105357 5.73478 0 6 0H22C22.2652 0 22.5196 0.105357 22.7071 0.292893C22.8946 0.48043 23 0.734784 23 1V5H24.8337C26.58 5 28 6.34625 28 8ZM7 5H21V2H7V5ZM21 16H7V22H21V16ZM23 10.5C23 10.2033 22.912 9.91332 22.7472 9.66665C22.5824 9.41997 22.3481 9.22771 22.074 9.11418C21.7999 9.00065 21.4983 8.97094 21.2074 9.02882C20.9164 9.0867 20.6491 9.22956 20.4393 9.43934C20.2296 9.64912 20.0867 9.91639 20.0288 10.2074C19.9709 10.4983 20.0007 10.7999 20.1142 11.074C20.2277 11.3481 20.42 11.5824 20.6666 11.7472C20.9133 11.912 21.2033 12 21.5 12C21.8978 12 22.2794 11.842 22.5607 11.5607C22.842 11.2794 23 10.8978 23 10.5Z" fill="#F8F8F8"/>
</svg>
