<svg width="26" height="24" viewBox="0 0 26 24" fill="none" xmlns="http://www.w3.org/2000/svg">
<path id="Vector" d="M26 11.9982C26.0003 15.1531 24.7582 18.1811 22.5425 20.427C20.3268 22.6729 17.3158 23.9558 14.1613 23.9982H14C10.9353 24.0059 7.98537 22.8331 5.76252 20.7232C5.66706 20.6329 5.59032 20.5247 5.53669 20.4048C5.48305 20.2849 5.45356 20.1555 5.4499 20.0242C5.44625 19.8929 5.46849 19.7621 5.51538 19.6393C5.56226 19.5166 5.63286 19.4043 5.72314 19.3088C5.81343 19.2134 5.92163 19.1367 6.04157 19.083C6.16151 19.0294 6.29084 18.9999 6.42217 18.9962C6.55351 18.9926 6.68428 19.0148 6.80702 19.0617C6.92976 19.1086 7.04206 19.1792 7.13752 19.2695C8.56726 20.6178 10.3626 21.515 12.2993 21.849C14.236 22.1829 16.2281 21.9388 18.0269 21.1471C19.8256 20.3554 21.3512 19.0513 22.4131 17.3976C23.475 15.7439 24.026 13.814 23.9974 11.8489C23.9688 9.88385 23.3619 7.97078 22.2523 6.34868C21.1428 4.72658 19.5799 3.46737 17.7589 2.72835C15.9379 1.98933 13.9395 1.80327 12.0133 2.19341C10.0872 2.58355 8.31868 3.53259 6.92877 4.92198C6.91856 4.93302 6.9077 4.94345 6.89627 4.95323L5.57877 6.15948L7.70377 8.28448C7.84571 8.42376 7.9429 8.60221 7.98292 8.79702C8.02293 8.99182 8.00396 9.19413 7.92841 9.3781C7.85287 9.56206 7.72419 9.71932 7.55881 9.82979C7.39344 9.94025 7.19889 9.99889 7.00002 9.99823H1.00002C0.7348 9.99823 0.480446 9.89287 0.29291 9.70533C0.105374 9.5178 1.6848e-05 9.26344 1.6848e-05 8.99823V2.99823C-0.00113413 2.7999 0.0567114 2.60572 0.1662 2.44035C0.275689 2.27499 0.431875 2.14592 0.614905 2.06954C0.797935 1.99317 0.99954 1.97295 1.19409 2.01144C1.38865 2.04993 1.56736 2.14541 1.70752 2.28573L4.16377 4.74823L5.53127 3.49823C7.21124 1.82478 9.34935 0.686559 11.6757 0.227263C14.002 -0.232032 16.4123 0.00818253 18.6022 0.917584C20.7921 1.82699 22.6635 3.3648 23.9802 5.33691C25.2968 7.30901 25.9997 9.62699 26 11.9982Z" fill="#555555"/>
</svg>
