<svg width="26" height="27" viewBox="0 0 26 27" fill="none" xmlns="http://www.w3.org/2000/svg">
<path id="Vector" d="M25.7075 25.715C25.6147 25.808 25.5044 25.8817 25.383 25.9321C25.2616 25.9824 25.1315 26.0083 25 26.0083C24.8686 26.0083 24.7385 25.9824 24.6171 25.9321C24.4957 25.8817 24.3854 25.808 24.2925 25.715L18.035 19.4563C15.8589 21.2666 13.0687 22.1684 10.2446 21.974C7.42058 21.7796 4.78018 20.504 2.87265 18.4126C0.965115 16.3211 -0.0627116 13.5747 0.00296418 10.7448C0.06864 7.91483 1.22276 5.21913 3.22527 3.21839C5.22777 1.21766 7.9245 0.0659174 10.7545 0.00274271C13.5845 -0.060432 16.33 0.969821 18.4197 2.8792C20.5095 4.78859 21.7828 7.43011 21.9747 10.2543C22.1666 13.0785 21.2623 15.868 19.45 18.0425L25.7075 24.3C25.8005 24.3929 25.8743 24.5032 25.9246 24.6246C25.9749 24.746 26.0008 24.8761 26.0008 25.0075C26.0008 25.1389 25.9749 25.2691 25.9246 25.3904C25.8743 25.5118 25.8005 25.6221 25.7075 25.715ZM11 20.0075C12.7801 20.0075 14.5201 19.4797 16.0002 18.4907C17.4802 17.5018 18.6338 16.0962 19.315 14.4517C19.9961 12.8071 20.1744 10.9975 19.8271 9.2517C19.4798 7.50587 18.6227 5.90222 17.364 4.64355C16.1053 3.38488 14.5017 2.52771 12.7559 2.18044C11.01 1.83318 9.20042 2.0114 7.55589 2.69259C5.91135 3.37378 4.50575 4.52733 3.51681 6.00738C2.52788 7.48742 2.00004 9.22748 2.00004 11.0075C2.00269 13.3936 2.95175 15.6813 4.639 17.3685C6.32625 19.0558 8.6139 20.0049 11 20.0075Z" fill="#2CA9E1"/>
</svg>
