<svg width="44" height="40" viewBox="0 0 44 40" fill="none" xmlns="http://www.w3.org/2000/svg">
<path id="Vector" d="M42.6733 16.0018C42.6304 15.7852 42.5415 15.5804 42.4124 15.4013C42.2834 15.2221 42.1173 15.0729 41.9254 14.9636L36.1903 11.6952L36.1672 5.23148C36.1665 5.00887 36.1175 4.78907 36.0236 4.58725C35.9297 4.38543 35.793 4.20641 35.6231 4.06255C33.5428 2.3028 31.1471 0.954238 28.5634 0.0885625C28.3599 0.0196951 28.1443 -0.00579089 27.9304 0.013746C27.7165 0.0332829 27.509 0.0974095 27.3214 0.201995L21.5363 3.43579L15.7455 0.196227C15.5578 0.0910526 15.3501 0.0264418 15.1358 0.00657143C14.9215 -0.0132989 14.7055 0.0120133 14.5016 0.080872C11.9195 0.952107 9.52641 2.30589 7.44955 4.07024C7.27992 4.21389 7.14344 4.3926 7.04951 4.59407C6.95558 4.79554 6.90643 5.01497 6.90546 5.23725L6.87662 11.7068L1.14154 14.9752C0.94967 15.0844 0.783565 15.2337 0.654515 15.4128C0.525465 15.5919 0.436496 15.7968 0.393655 16.0134C-0.131218 18.6509 -0.131218 21.3661 0.393655 24.0036C0.436496 24.2202 0.525465 24.425 0.654515 24.6042C0.783565 24.7833 0.94967 24.9326 1.14154 25.0418L6.87662 28.3102L6.89969 34.7759C6.90039 34.9985 6.9494 35.2183 7.04334 35.4201C7.13728 35.6219 7.2739 35.801 7.44378 35.9448C9.52416 37.7046 11.9199 39.0531 14.5035 39.9188C14.707 39.9877 14.9226 40.0132 15.1365 39.9936C15.3504 39.9741 15.5579 39.91 15.7455 39.8054L21.5363 36.562L27.3272 39.8015C27.5564 39.9292 27.8147 39.9954 28.077 39.9938C28.245 39.9937 28.4118 39.9665 28.5711 39.913C31.1526 39.0422 33.5455 37.6898 35.6231 35.9275C35.7928 35.7839 35.9293 35.6052 36.0232 35.4037C36.1171 35.2022 36.1663 34.9828 36.1672 34.7605L36.1961 28.291L41.9312 25.0226C42.123 24.9134 42.2891 24.7641 42.4182 24.585C42.5472 24.4058 42.6362 24.201 42.679 23.9844C43.201 21.3489 43.199 18.6365 42.6733 16.0018ZM21.5363 27.6892C20.0153 27.6892 18.5285 27.2382 17.2638 26.3932C15.9991 25.5481 15.0135 24.3471 14.4314 22.9418C13.8493 21.5366 13.697 19.9903 13.9938 18.4986C14.2905 17.0068 15.0229 15.6365 16.0984 14.561C17.174 13.4855 18.5443 12.753 20.036 12.4563C21.5278 12.1596 23.0741 12.3119 24.4793 12.8939C25.8845 13.476 27.0856 14.4617 27.9306 15.7263C28.7757 16.991 29.2267 18.4779 29.2267 19.9989C29.2267 22.0385 28.4165 23.9946 26.9742 25.4368C25.532 26.879 23.576 27.6892 21.5363 27.6892Z" fill="#555555"/>
</svg>
