<svg width="40" height="40" viewBox="0 0 40 40" fill="none" xmlns="http://www.w3.org/2000/svg">
<path id="Vector" d="M20 0C16.0444 0 12.1776 1.17298 8.8886 3.37061C5.59962 5.56823 3.03617 8.69181 1.52242 12.3463C0.00866569 16.0008 -0.387401 20.0222 0.384303 23.9018C1.15601 27.7814 3.06082 31.3451 5.85787 34.1421C8.65492 36.9392 12.2186 38.844 16.0982 39.6157C19.9778 40.3874 23.9991 39.9913 27.6537 38.4776C31.3082 36.9638 34.4318 34.4004 36.6294 31.1114C38.827 27.8224 40 23.9556 40 20C39.9944 14.6974 37.8855 9.61356 34.136 5.86405C30.3864 2.11453 25.3026 0.00559965 20 0ZM22.3077 29.2308H21.5385V30.7692C21.5385 31.1772 21.3764 31.5686 21.0879 31.8571C20.7993 32.1456 20.408 32.3077 20 32.3077C19.592 32.3077 19.2007 32.1456 18.9121 31.8571C18.6236 31.5686 18.4615 31.1772 18.4615 30.7692V29.2308H15.3846C14.9766 29.2308 14.5853 29.0687 14.2968 28.7802C14.0082 28.4916 13.8462 28.1003 13.8462 27.6923C13.8462 27.2843 14.0082 26.893 14.2968 26.6044C14.5853 26.3159 14.9766 26.1538 15.3846 26.1538H22.3077C22.9197 26.1538 23.5067 25.9107 23.9395 25.4779C24.3723 25.0452 24.6154 24.4582 24.6154 23.8461C24.6154 23.2341 24.3723 22.6471 23.9395 22.2144C23.5067 21.7816 22.9197 21.5385 22.3077 21.5385H17.6923C16.2642 21.5385 14.8946 20.9712 13.8848 19.9613C12.875 18.9515 12.3077 17.5819 12.3077 16.1538C12.3077 14.7258 12.875 13.3562 13.8848 12.3463C14.8946 11.3365 16.2642 10.7692 17.6923 10.7692H18.4615V9.23077C18.4615 8.82274 18.6236 8.43143 18.9121 8.14291C19.2007 7.85439 19.592 7.69231 20 7.69231C20.408 7.69231 20.7993 7.85439 21.0879 8.14291C21.3764 8.43143 21.5385 8.82274 21.5385 9.23077V10.7692H24.6154C25.0234 10.7692 25.4147 10.9313 25.7032 11.2198C25.9918 11.5084 26.1538 11.8997 26.1538 12.3077C26.1538 12.7157 25.9918 13.107 25.7032 13.3955C25.4147 13.6841 25.0234 13.8462 24.6154 13.8462H17.6923C17.0803 13.8462 16.4933 14.0893 16.0605 14.5221C15.6278 14.9548 15.3846 15.5418 15.3846 16.1538C15.3846 16.7659 15.6278 17.3529 16.0605 17.7856C16.4933 18.2184 17.0803 18.4615 17.6923 18.4615H22.3077C23.7358 18.4615 25.1054 19.0288 26.1152 20.0387C27.125 21.0485 27.6923 22.4181 27.6923 23.8461C27.6923 25.2742 27.125 26.6438 26.1152 27.6536C25.1054 28.6635 23.7358 29.2308 22.3077 29.2308Z" fill="#555555"/>
</svg>
