<svg width="35" height="28" viewBox="0 0 35 28" fill="none" xmlns="http://www.w3.org/2000/svg">
<path id="Vector" d="M29.6413 7.87174L34.2375 12.4679C34.3892 12.6194 34.4926 12.8125 34.5345 13.0227C34.5764 13.233 34.555 13.451 34.473 13.649C34.391 13.8471 34.252 14.0164 34.0737 14.1355C33.8954 14.2545 33.6858 14.318 33.4715 14.3179L30.3949 14.3169C30.1229 17.9039 28.814 20.9556 26.5772 23.1924C22.477 27.2926 17.5906 27.3395 17.3848 27.3405C17.0974 27.3408 16.8217 27.227 16.6182 27.0241C16.4148 26.8212 16.3003 26.5458 16.2999 26.2584C16.2995 25.9711 16.4133 25.6953 16.6162 25.4919C16.8191 25.2884 17.0946 25.1739 17.3819 25.1735C17.4499 25.1726 21.6133 25.0921 25.0451 21.6603C27.2637 19.4417 28.0202 16.6074 28.2203 14.3179H24.2791C24.0647 14.318 23.8551 14.2545 23.6768 14.1355C23.4985 14.0164 23.3596 13.8471 23.2775 13.649C23.1955 13.451 23.1741 13.233 23.216 13.0227C23.258 12.8125 23.3613 12.6194 23.513 12.4679L28.1092 7.87174C28.3124 7.66858 28.5879 7.55444 28.8753 7.55444C29.1626 7.55444 29.4381 7.66858 29.6413 7.87174ZM11.4911 14.3514C11.4092 14.1534 11.2704 13.9841 11.0923 13.865C10.9142 13.7458 10.7048 13.6822 10.4905 13.6821L6.54925 13.6821C6.74938 11.3926 7.50583 8.5583 9.72445 6.33968C13.1668 2.89732 17.3436 2.82646 17.3886 2.82742C17.6761 2.82691 17.9516 2.71222 18.1545 2.50859C18.3574 2.30495 18.4711 2.02905 18.4706 1.74157C18.4701 1.45409 18.3554 1.17859 18.1518 0.97567C17.9482 0.772751 17.6723 0.659038 17.3848 0.659546C17.1789 0.660503 12.2926 0.707424 8.19239 4.80761C5.95557 7.04443 4.64662 10.0961 4.37467 13.6831L1.2981 13.6821C1.08371 13.682 0.874108 13.7455 0.695826 13.8645C0.517543 13.9836 0.378597 14.1529 0.296577 14.351C0.214557 14.549 0.193153 14.767 0.235072 14.9773C0.276992 15.1875 0.380351 15.3806 0.532065 15.5321L5.12826 20.1283C5.33142 20.3314 5.60697 20.4456 5.89429 20.4456C6.18161 20.4456 6.45716 20.3314 6.66032 20.1283L11.2565 15.5321C11.408 15.3805 11.5111 15.1875 11.5529 14.9773C11.5946 14.7672 11.5731 14.5494 11.4911 14.3514Z" fill="#555555"/>
</svg>
