<svg width="56" height="40" viewBox="0 0 56 40" fill="none" xmlns="http://www.w3.org/2000/svg">
<g id="Group 2">
<g id="Group">
<g id="Group_2">
<path id="Vector" d="M12.3792 8.26086C14.6604 8.26086 16.5096 6.4116 16.5096 4.13043C16.5096 1.84926 14.6604 0 12.3792 0C10.098 0 8.24878 1.84926 8.24878 4.13043C8.24878 6.4116 10.098 8.26086 12.3792 8.26086Z" fill="#555555"/>
</g>
</g>
<g id="Group_3">
<g id="Group_4">
<path id="Vector_2" d="M54.2277 11.6447C53.3891 11.4797 52.574 12.0265 52.4088 12.8659L49.7381 26.4534H47.7894C47.9769 26.3312 48.1527 26.1892 48.3122 26.0274C48.8973 25.4335 49.2216 24.6309 49.2133 23.7972L49.1084 13.1683C49.0912 11.4256 47.654 10.0314 45.9127 10.0658L43.0304 10.1228C42.1947 10.1394 41.4003 10.4891 40.8235 11.0941C40.6746 11.2505 40.5436 11.4206 40.4314 11.6011L41.513 13.4884L44.2298 11.7764L40.4916 15.6891L37.0394 9.66558C38.6149 8.0904 38.0876 8.61745 39.697 7.00825C39.7761 6.92915 39.8392 6.84019 39.8872 6.74548C40.7922 7.86264 42.2546 8.47582 43.7744 8.224C46.025 7.85115 47.5472 5.72434 47.1744 3.47356C46.8015 1.2229 44.6747 -0.29929 42.424 0.073564C40.1734 0.446417 38.6512 2.57323 39.024 4.8239C39.0487 4.97256 39.0815 5.11787 39.1209 5.25992C38.8086 5.21322 38.4791 5.3089 38.2385 5.54945C37.2002 6.58772 36.5618 7.22604 35.5418 8.24578C35.0955 8.14003 34.6099 8.19529 34.1806 8.44137C33.4423 8.86461 33.1029 9.71444 33.2923 10.5021C32.9577 10.9072 32.9798 11.5078 33.3588 11.887C33.5677 12.096 33.858 12.2096 34.1692 12.1852L38.4902 19.7241C39.1119 20.8088 40.6031 20.9905 41.467 20.0863L47.2385 14.0452C47.2315 14.0578 47.218 14.083 47.218 14.083L43.0511 20.9874C42.6117 21.7154 41.8233 22.1604 40.9729 22.1604H38.3701C38.5322 21.9156 38.6271 21.6109 38.6271 21.2952C38.6271 20.4396 37.9335 19.7461 37.0781 19.7461C36.7179 19.7461 36.7793 19.7461 34.2928 19.7461C35.1266 19.0724 35.6734 18.0705 35.7483 16.9479C35.7549 16.8482 35.72 16.7502 35.6518 16.6772C35.5835 16.6043 35.488 16.5626 35.3881 16.5626C33.933 16.5626 29.6589 16.5626 28.2518 16.5626C28.1519 16.5626 28.0565 16.6039 27.9882 16.6769C27.9199 16.7498 27.8846 16.8479 27.8913 16.9475C27.9662 18.0721 28.5143 19.0735 29.3468 19.7462H25.3199C26.1528 19.0732 26.7005 18.0714 26.7754 16.948C26.7821 16.8483 26.7472 16.7503 26.6789 16.6773C26.6106 16.6044 26.5152 16.5627 26.4153 16.5627C25.6671 16.5627 24.8324 16.5627 23.2145 16.5627L22.776 15.7296C23.5807 15.1169 23.7559 13.9718 23.1602 13.1469C22.6707 12.4689 21.8114 12.2164 21.0573 12.4648L20.9785 12.3152C20.7133 11.8112 20.0895 11.6177 19.5854 11.883C19.0814 12.1483 18.8878 12.7719 19.1531 13.2761L19.3268 13.6062L15.5907 16.3035L11.2482 11.7583L15.122 14.1993L15.5016 13.9252L15.5185 13.3269C15.568 11.5866 14.1877 10.139 12.4477 10.1046L9.56545 10.0476C7.82309 10.0132 6.38683 11.4084 6.36971 13.1501L6.26482 23.779C6.25658 24.6127 6.58089 25.4152 7.16591 26.0091C7.32541 26.171 7.50116 26.3131 7.68872 26.4352H5.74048L3.06961 12.8479C2.90448 12.0083 2.09105 11.4616 1.25064 11.6267C0.411093 11.7917 -0.135564 12.606 0.029354 13.4456L2.94619 28.2834C3.01879 28.6528 3.21947 28.9693 3.49621 29.1917V33.6462V38.4791C3.49621 39.0495 3.95856 39.5118 4.52906 39.5118C5.09955 39.5118 5.56191 39.0495 5.56191 38.4791V34.679C15.41 34.679 14.7671 34.6777 14.888 34.6814C14.8413 34.8403 14.9329 34.5976 14.2041 36.4392C13.7477 37.5924 14.3128 38.8974 15.4661 39.3537C16.6197 39.8101 17.9244 39.245 18.3807 38.0918C23.8334 24.3125 23.5074 25.1563 23.5591 24.9641C23.7532 24.2403 23.5798 23.4338 23.0257 22.8447C24.3154 22.8447 25.2837 22.8447 26.6023 22.8447V36.4135C25.7996 36.4135 25.293 36.4135 24.483 36.4135C23.6275 36.4135 22.9339 37.1071 22.9339 37.9627C22.9339 38.8183 23.6275 39.5118 24.483 39.5118C27.0497 39.5118 28.9588 39.5118 31.82 39.5118C32.6755 39.5118 33.369 38.8183 33.369 37.9627C33.369 37.1071 32.6754 36.4135 31.82 36.4135C31.0098 36.4135 30.5033 36.4135 29.7005 36.4135V22.8445C29.914 22.8445 32.0684 22.8445 32.4528 22.8445C31.9008 23.4312 31.7246 24.237 31.9194 24.9639C31.9709 25.1554 31.645 24.3119 37.0978 38.0916C37.5544 39.2456 38.8596 39.8098 40.0123 39.3536C41.1656 38.8972 41.7306 37.5923 41.2744 36.4391C40.5496 34.6074 40.6444 34.8454 40.5842 34.6999C40.7113 34.6958 39.9584 34.6971 49.9166 34.6971V38.4791C49.9166 39.0495 50.379 39.5118 50.9495 39.5118C51.52 39.5118 51.9823 39.0495 51.9823 38.4791C51.9823 37.6002 51.9823 30.1167 51.9823 29.21C52.2591 28.9876 52.4598 28.6711 52.5323 28.3017L55.4491 13.4637C55.614 12.624 55.0673 11.8097 54.2277 11.6447ZM5.5618 32.6133V29.5338H12.8244L14.0121 32.6133H5.5618ZM15.9753 31.9633L15.0382 29.5338H15.3104C16.166 29.5338 16.8594 28.8402 16.8594 27.9846C16.8594 27.4112 16.5469 26.9115 16.0838 26.6437L18.0825 26.6378L15.9753 31.9633ZM19.2249 19.7464C18.3693 19.7464 17.6758 20.44 17.6758 21.2955C17.6758 21.6035 17.7721 21.9192 17.9313 22.1607C16.9725 22.1635 15.5705 22.163 14.5362 22.1622C13.6878 22.1614 12.9012 21.7172 12.4612 20.9918L8.26041 14.0652C8.26041 14.0652 8.24817 14.0409 8.24156 14.0289L14.0115 20.0682C14.6575 20.7443 15.703 20.8395 16.4603 20.2927L19.2479 18.28C19.5033 18.8543 19.8917 19.356 20.3745 19.7462H19.2249V19.7464ZM39.5069 31.9721L37.396 26.6377L39.4246 26.6437C38.9447 26.907 38.6191 27.4167 38.6191 28.0027C38.6191 28.8583 39.3127 29.5519 40.1682 29.5519H40.4402L39.5069 31.9721ZM49.9167 32.6314H41.4664L42.6541 29.5519H49.9167V32.6314Z" fill="#555555"/>
</g>
</g>
</g>
</svg>
